<svg version="1.1" viewBox="0 0 159 32" xmlns="http://www.w3.org/2000/svg"><path d="m131.35 0c-2.4278 0-4.3825 1.9547-4.3825 4.3825v23.235c0 2.4278 1.9547 4.3825 4.3825 4.3825h23.235c2.4278 0 4.3825-1.9547 4.3825-4.3825v-23.235c0-2.4278-1.9547-4.3825-4.3825-4.3825zm-131.33 3.9v27.264h2.2275l0.115-3.7625c0.5632 1.2544 1.4218 2.2776 2.5738 3.0712 1.152 0.768 2.4952 1.1525 4.0312 1.1525 1.7664 0 3.3032-0.43585 4.6088-1.3062s2.3038-2.099 2.995-3.6862c0.7168-1.5872 1.075-3.469 1.075-5.645s-0.3582-4.0578-1.075-5.645c-0.6912-1.5872-1.6894-2.8158-2.995-3.6862s-2.8424-1.305-4.6088-1.305c-1.5104 0-2.8286 0.39641-3.955 1.19-1.1264 0.7936-1.9455 1.7404-2.4575 2.8412v-10.482zm74.084 0.46125v27.264h2.5338v-5.53l4.34-4.4538 7.4875 9.9838h3.0725l-8.8713-11.674 8.3713-8.6787h-3.3788l-11.021 11.598v-18.509zm75.451 0.43875 6.5712 15.84-3.3912 1.4062-6.5713-15.84zm-37.921 1.7112v4.7613h-3.1875v2.2662h3.1875v13.325c0 3.1744 1.625 4.7612 4.8762 4.7612h2.9188v-2.2662h-2.6888c-0.8704 0-1.5223-0.191-1.9575-0.575-0.4096-0.384-0.61501-1.0503-0.61501-1.9975v-13.248h5.2613v-2.2662h-5.2613v-4.7613zm31.219 1.0425 4.2112 10.151c0.51215 1.2344 0.68904 2.4169 0.53001 3.5462-0.14416 1.1232-0.60193 2.1408-1.3738 3.0538-0.77799 0.89805-1.8288 1.6221-3.1525 2.1712-1.3386 0.55533-2.601 0.79107-3.7862 0.7075-1.1765-0.10461-2.2207-0.49988-3.1325-1.185-0.91181-0.68512-1.6241-1.6443-2.1363-2.8788l-4.2112-10.151 3.3912-1.4062 4.2112 10.15c0.42576 1.0262 1.0239 1.7107 1.7938 2.0538 0.7786 0.32199 1.6736 0.27333 2.685-0.14625 0.99649-0.41341 1.6479-1.0063 1.955-1.7788 0.31582-0.79348 0.26075-1.7025-0.16501-2.7288l-4.2112-10.151zm-82.619 1.0312a11.52 11.52 0 0 0-11.52 11.52 11.52 11.52 0 0 0 11.52 11.52 11.52 11.52 0 0 0 5.9675-1.685l-8.6938-2.6775-0.05125-13.894 8.9075-3.0125a11.52 11.52 0 0 0-6.13-1.7712zm-21.416 1.7662c-2.2784 0-4.1339 0.58866-5.5675 1.7663-1.408 1.152-2.3048 2.7138-2.6888 4.685l2.6888 0.23c0.3072-1.3568 0.9209-2.4064 1.8425-3.1488 0.9216-0.74241 2.1634-1.1138 3.725-1.1138 1.7664 0 3.0846 0.4872 3.955 1.46 0.8704 0.9472 1.3062 2.4314 1.3062 4.4538l-7.5262 1.4212c-2.0736 0.384-3.6486 1.0753-4.7238 2.0738-1.0752 0.97279-1.6125 2.291-1.6125 3.955 0 1.7152 0.6137 3.0584 1.8425 4.0312s2.867 1.46 4.915 1.46c1.6128 0 3.0732-0.37136 4.3788-1.1138 1.3056-0.768 2.2142-1.7148 2.7262-2.8412 0.1024 1.3312 0.4343 2.2649 0.9975 2.8025 0.5632 0.512 1.3954 0.76875 2.4962 0.76875 0.4352 0 0.7815-0.0263 1.0375-0.0775v-2.265h-0.615c-0.4864-1e-5 -0.8446-0.11585-1.075-0.34625-0.2048-0.256-0.3075-0.73006-0.3075-1.4213v-8.4862c0-2.6624-0.66505-4.7102-1.9962-6.1438s-3.2644-2.15-5.7988-2.15zm60.08 0c-1.8944 0-3.5207 0.46091-4.8775 1.3825-1.3312 0.896-2.3544 2.1497-3.0712 3.7625-0.7168 1.5872-1.075 3.4176-1.075 5.4912 0 2.0736 0.3582 3.9172 1.075 5.53 0.7424 1.5872 1.792 2.8422 3.1488 3.7638 1.3568 0.896 3.0082 1.3438 4.9537 1.3438 2.1248 0 3.917-0.57675 5.3762-1.7288s2.4442-2.623 2.9562-4.415l-2.7262-0.1925c-0.3584 1.1776-1.0116 2.1244-1.9588 2.8412s-2.1627 1.0762-3.6475 1.0762c-1.9456 0-3.4942-0.64-4.6462-1.92-1.152-1.3056-1.7801-3.1624-1.8825-5.5688h15.208v-0.80626c0-2.1248-0.35945-3.9803-1.0762-5.5675s-1.74-2.8171-3.0712-3.6875c-1.3056-0.8704-2.8674-1.305-4.685-1.305zm-78.525 0.92126v20.352h2.535v-12.404c0-1.6896 0.40955-3.021 1.2288-3.9938 0.8448-0.9984 2.0352-1.4975 3.5712-1.4975h1.8425v-2.4575h-1.7662c-2.6112 0-4.3139 1.3445-5.1075 4.0325l-0.115-4.0325zm48.479 1.19-7.9825 2.7-0.10375 9.8362 8.1838 2.6375a11.52 11.52 0 0 0 2.805-7.5312 11.52 11.52 0 0 0-2.9025-7.6425zm-59.96 0.3075c1.8688 0 3.3411 0.7427 4.4163 2.2275 1.1008 1.4592 1.6512 3.4556 1.6512 5.99 0 2.5088-0.55045 4.5064-1.6512 5.9913-1.1008 1.4848-2.5862 2.2262-4.455 2.2262-1.9456 0-3.4811-0.74145-4.6075-2.2262-1.1264-1.5104-1.69-3.5081-1.69-5.9913s0.5636-4.4664 1.69-5.9512c1.152-1.5104 2.7006-2.2662 4.6462-2.2662zm90.006 0c1.7664 0 3.1873 0.57675 4.2625 1.7288 1.0752 1.1264 1.677 2.7778 1.805 4.9538h-12.443c0.2304-2.1248 0.90985-3.7642 2.0363-4.9162 1.1264-1.1776 2.5723-1.7662 4.3388-1.7662zm-54.819 8.18v2.035c0 1.2032-0.2818 2.291-0.845 3.2638-0.5632 0.9472-1.3572 1.7018-2.3812 2.265s-2.2395 0.845-3.6475 0.845c-1.3568 0-2.4195-0.2937-3.1875-0.8825-0.768-0.6144-1.1525-1.473-1.1525-2.5738 0-0.9728 0.33315-1.7524 0.99875-2.3412 0.6912-0.6144 1.767-1.0502 3.2262-1.3062z" stroke-width=".64"/></svg>
